Coordinates
version=1
nRows=9
nColumns=36
inDegrees=yes

Units are S.I. units (second, meters, Newtons, ...)
If the header above contains a line with 'inDegrees', this indicates whether rotational values are in degrees (yes) or radians (no).

endheader
time	pelvis_tilt	pelvis_list	pelvis_rotation	pelvis_tx	pelvis_ty	pelvis_tz	hip_flexion_r	hip_adduction_r	hip_rotation_r	knee_angle_r	knee_angle_r_beta	ankle_angle_r	subtalar_angle_r	mtp_angle_r	hip_flexion_l	hip_adduction_l	hip_rotation_l	knee_angle_l	knee_angle_l_beta	ankle_angle_l	subtalar_angle_l	mtp_angle_l	lumbar_extension	lumbar_bending	lumbar_rotation	arm_flex_r	arm_add_r	arm_rot_r	elbow_flex_r	pro_sup_r	arm_flex_l	arm_add_l	arm_rot_l	elbow_flex_l	pro_sup_l
     44.90000000	     -0.13398752	     -0.66551019	     -2.51771509	      0.89179649	      0.91420406	      0.73784383	     27.53035638	     -2.34303746	      1.54896600	      8.31508849	      0.14512567	      6.23432509	     -0.82135675	     -7.49999987	    -10.11275929	      0.99606535	      6.40982028	     11.60446956	      0.20253620	     16.59452451	     -9.47802312	     -7.49999987	    -20.23165984	      0.62873399	     -2.69596926	      2.64369053	    -12.98449746	     -4.29499782	     16.55685190	     85.26848054	     25.92392005	    -16.12706506	     12.62731470	     38.54404154	     85.57966093
     44.91666670	     -0.54088760	     -1.02621707	     -1.97506220	      0.88803386	      0.91055046	      0.74274528	     28.51506037	     -1.92448884	      1.74794192	      6.58050936	      0.11485155	      7.12617729	      0.02632112	     -7.49999987	    -10.70957182	      0.24776449	      6.40030081	     12.13018638	      0.21171169	     18.21758429	     -9.25542108	     -7.49999987	    -19.95919814	      1.08476597	     -3.68160575	      2.46503545	    -12.99809963	     -4.57846718	     15.92770742	     85.34696949	     27.09488395	    -16.73000711	     13.06106720	     38.57696283	     85.73908192
     44.93333330	     -0.99805980	     -1.41027761	     -1.78303018	      0.88629755	      0.90658604	      0.74501802	     29.45570163	     -1.27913648	      2.20903797	      5.96898609	      0.10417846	      7.29699587	      0.26202529	     -7.49999987	    -11.26483791	     -0.51618730	      6.06171872	     12.85316312	      0.22433002	     18.97213334	     -9.52669020	     -7.49999987	    -19.64261892	      1.43420670	     -4.22387678	      2.14101654	    -13.10352229	     -4.67911898	     15.84305858	     85.28156676	     28.04885283	    -17.13520716	     13.08021372	     38.75534465	     85.70812590
     44.95000000	     -1.42496576	     -2.08037127	     -1.53777010	      0.88933350	      0.90432206	      0.74597667	     29.85979528	     -0.35365421	      2.04444261	      6.11631529	      0.10674984	      6.15133175	     -0.02898860	     -7.49999987	    -11.86310786	     -1.61157423	      5.16404114	     13.92258937	      0.24299502	     19.69850237	     -8.79299201	     -7.49999987	    -18.95718680	      2.22994830	     -4.77275906	      2.23847120	    -13.25836046	     -5.46651437	     14.24043993	     85.53077591	     28.78492382	    -17.47594942	     14.35235817	     37.74948211	     86.30447228
     44.96666670	     -1.69941380	     -2.83213625	     -1.47940162	      0.89688907	      0.90216555	      0.74878995	     29.72164547	      0.81718560	      1.79937870	      7.05801737	      0.12318564	      4.10613471	     -0.41442971	     -7.49999987	    -12.71217296	     -2.66674187	      4.34382531	     15.20322314	      0.26534630	     19.31125434	     -8.92277600	     -7.49999987	    -18.27353074	      3.00660925	     -4.42778660	      1.34293325	    -13.40630658	     -8.59083666	     13.84139700	     88.10087426	     29.38146963	    -17.27323851	     15.69214503	     36.42412962	     88.34016647
     44.98333330	     -1.75852831	     -3.65165854	     -1.46735635	      0.90477098	      0.90013416	      0.75312028	     29.12283995	      2.12037657	      1.47346412	      8.54994820	      0.14922475	      1.42250251	     -1.05727174	     -7.49999987	    -13.71454150	     -3.76307890	      3.47401351	     16.81721599	      0.29351579	     18.27579874	     -8.95198068	     -7.49999987	    -17.53510743	      3.89625169	     -4.62188747	      0.87870768	    -13.65766777	     -9.22786576	     12.99908809	     89.33550809	     28.57167395	    -17.16859437	     14.91085555	     35.92567997	     88.79487630
     45.00000000	     -1.61265517	     -4.49039936	     -1.72255274	      0.90938772	      0.89973346	      0.75717509	     28.28902914	      3.50566197	      1.28234274	     10.40712495	      0.18163860	     -1.04752421	     -1.40076407	     -7.49999987	    -14.73160949	     -4.80983195	      2.45005673	     18.77538267	      0.32769225	     16.23222047	     -9.18668248	     -7.49999987	    -16.98305969	      4.76169061	     -4.48809656	      0.53439321	    -13.90006138	     -9.91609126	     12.52465246	     89.71344532	     27.53208262	    -16.97481317	     14.18310224	     35.27919567	     88.63040479
     45.01666670	     -1.36723144	     -5.26030630	     -2.16020925	      0.91196759	      0.90178743	      0.76009528	     27.33654973	      4.77418331	      1.25356736	     12.38355309	      0.21613377	     -2.77868121	     -1.66739213	     -7.49999987	    -15.48307810	     -5.74905987	      1.32822194	     21.19157971	      0.36986284	     13.29232719	     -9.36875720	     -7.49999987	    -16.56386618	      5.58892912	     -4.21822293	      0.66589505	    -14.14808830	    -10.25501598	     12.11923197	     89.80438477	     26.33362118	    -16.66184445	     13.15855322	     34.43347092	     88.34112112
     45.03333330	     -0.91206587	     -5.83809656	     -2.61906456	      0.91406845	      0.90601776	      0.76226680	     26.07667932	      5.72953103	      1.32559335	     14.20125557	      0.24785867	     -3.45077539	     -1.85418906	     -7.49999987	    -15.93433021	     -6.44497043	      0.38801546	     24.12780762	      0.42110968	      9.37496219	     -9.78846425	     -7.49999987	    -16.61356218	      6.30322603	     -3.76838180	      1.02721215	    -14.47285149	    -10.24492432	     12.40478761	     89.16209731	     25.04791992	    -16.25744850	     12.18203302	     33.94321647	     87.41679331
